<svg id="svg" xmlns="http://www.w3.org/2000/svg" xmlns:xlink="http://www.w3.org/1999/xlink" width="400" height="378.15126050420173" viewBox="0, 0, 400,378.15126050420173"><g id="svgg"><path id="path0" d="M118.806 2.521 C 118.253 6.207,119.318 9.334,125.959 23.529 C 126.608 24.916,127.555 27.034,128.063 28.235 C 128.572 29.437,129.520 31.555,130.170 32.941 C 130.820 34.328,131.996 36.899,132.784 38.655 C 133.572 40.412,134.817 43.134,135.550 44.706 C 136.283 46.277,137.110 48.092,137.386 48.739 C 137.812 49.736,142.897 61.062,144.856 65.378 C 145.192 66.118,146.933 69.975,148.726 73.950 C 150.519 77.924,152.263 81.782,152.602 82.521 C 152.941 83.261,154.687 87.118,156.480 91.092 C 158.274 95.067,161.006 101.097,162.552 104.491 C 164.136 107.969,165.537 111.563,165.762 112.726 C 166.151 114.734,166.261 134.355,165.886 134.730 C 165.719 134.897,164.382 134.515,157.311 132.278 C 155.185 131.605,152.765 130.853,151.933 130.605 C 151.101 130.357,147.697 129.326,144.370 128.314 C 141.042 127.302,137.835 126.368,137.242 126.239 C 136.650 126.109,136.088 125.750,135.993 125.439 C 135.779 124.732,132.917 109.317,132.593 107.120 C 132.307 105.187,132.735 105.503,122.857 99.919 C 114.214 95.033,104.219 89.317,99.496 86.559 C 97.555 85.425,93.319 83.007,90.084 81.184 C 86.849 79.361,82.613 76.941,80.672 75.806 C 78.731 74.671,74.496 72.250,71.261 70.426 C 68.025 68.602,63.639 66.098,61.513 64.861 C 59.387 63.624,55.303 61.287,52.437 59.667 C 49.571 58.048,45.336 55.630,43.025 54.294 C 35.429 49.902,34.136 49.161,32.437 48.228 C 31.513 47.720,30.605 47.194,30.420 47.059 C 30.235 46.923,29.403 46.433,28.571 45.968 C 27.739 45.504,24.109 43.421,20.504 41.339 C 16.899 39.257,12.966 36.991,11.765 36.302 C 8.697 34.543,3.567 31.951,3.428 32.090 C 2.970 32.548,7.121 39.198,8.441 40.123 C 8.798 40.373,9.654 41.093,10.343 41.722 C 11.033 42.352,14.395 45.355,17.815 48.397 C 21.235 51.439,24.109 54.011,24.202 54.112 C 24.294 54.212,25.655 55.427,27.227 56.811 C 28.798 58.195,30.160 59.405,30.252 59.500 C 30.345 59.595,31.706 60.805,33.277 62.190 C 34.849 63.574,36.210 64.782,36.303 64.875 C 36.395 64.967,38.513 66.858,41.008 69.076 C 43.504 71.293,45.622 73.192,45.714 73.294 C 45.807 73.396,53.521 80.276,62.857 88.583 C 72.193 96.891,82.743 106.285,86.300 109.461 C 89.858 112.636,96.437 118.332,100.922 122.118 C 105.406 125.905,110.815 130.472,112.941 132.267 C 115.067 134.062,117.186 135.856,117.650 136.253 C 118.114 136.650,119.324 137.653,120.339 138.483 C 121.354 139.312,124.227 141.732,126.724 143.861 C 129.220 145.989,132.094 148.410,133.110 149.239 C 134.127 150.068,135.034 150.833,135.126 150.937 C 135.295 151.128,156.938 169.330,164.538 175.674 C 171.295 181.313,170.691 180.152,173.786 193.445 C 174.173 195.109,174.639 197.038,174.821 197.731 L 175.152 198.992 181.105 199.031 C 189.468 199.087,188.233 198.407,194.108 206.193 C 196.887 209.875,199.420 213.047,199.739 213.243 C 200.485 213.701,202.244 212.034,204.962 208.294 C 212.570 197.825,210.793 199.015,218.833 199.002 L 225.397 198.992 227.364 191.008 C 229.891 180.755,229.674 181.156,235.214 176.471 C 240.603 171.914,252.963 161.461,255.126 159.633 C 258.119 157.103,264.437 151.836,267.856 149.021 C 269.773 147.443,271.739 145.805,272.225 145.382 C 273.001 144.708,277.261 141.127,279.163 139.551 C 283.581 135.890,296.768 124.741,300.683 121.357 C 302.723 119.594,305.284 117.395,306.376 116.471 C 310.755 112.761,325.578 99.711,326.050 99.149 C 326.143 99.039,329.168 96.331,332.773 93.130 C 336.378 89.929,339.857 86.833,340.504 86.250 C 342.021 84.884,369.827 60.052,371.586 58.493 C 372.320 57.843,373.757 56.546,374.779 55.612 C 375.802 54.678,380.118 50.841,384.370 47.086 C 393.524 39.002,394.264 38.224,395.850 35.031 C 397.861 30.982,399.217 30.390,375.835 43.770 C 366.109 49.336,356.109 55.051,353.613 56.471 C 342.690 62.686,332.101 68.735,330.084 69.911 C 328.882 70.612,325.782 72.394,323.193 73.871 C 320.605 75.347,310.471 81.137,300.672 86.737 C 279.120 99.053,274.200 101.859,270.947 103.684 C 267.845 105.425,268.298 104.297,266.096 115.770 C 265.069 121.115,264.060 125.594,263.854 125.722 C 263.647 125.850,260.577 126.821,257.033 127.881 C 253.488 128.941,249.983 130.014,249.244 130.265 C 245.758 131.448,234.217 134.833,234.092 134.709 C 233.859 134.475,233.881 114.161,234.117 112.746 C 234.466 110.651,233.702 112.439,244.594 88.235 C 246.341 84.353,247.916 80.908,248.095 80.580 C 248.273 80.252,249.381 77.832,250.556 75.202 C 254.378 66.646,257.513 59.728,259.024 56.516 C 259.838 54.785,260.504 53.304,260.504 53.224 C 260.504 53.144,261.051 51.913,261.720 50.489 C 262.389 49.064,263.276 47.143,263.692 46.218 C 268.397 35.765,270.828 30.401,273.365 24.874 C 278.403 13.902,279.223 11.957,279.827 9.549 C 280.445 7.087,280.587 1.797,280.050 1.260 C 279.797 1.007,275.966 6.874,275.966 7.515 C 275.966 7.601,275.384 8.706,274.672 9.970 C 273.960 11.235,271.896 15.067,270.084 18.487 C 268.273 21.908,265.699 26.748,264.366 29.244 C 263.032 31.739,261.144 35.294,260.171 37.143 C 259.197 38.992,257.982 41.261,257.470 42.185 C 256.501 43.934,244.392 66.607,241.761 71.597 C 240.933 73.168,239.762 75.361,239.160 76.471 C 238.558 77.580,237.268 80.000,236.292 81.849 C 235.317 83.697,233.655 86.798,232.599 88.739 C 231.543 90.681,229.788 94.006,228.701 96.129 L 226.723 99.989 226.605 108.482 L 226.488 116.975 199.798 116.975 L 173.109 116.975 173.109 109.314 C 173.109 100.446,172.859 99.022,170.612 95.126 C 169.812 93.739,168.588 91.546,167.892 90.252 C 167.196 88.958,166.211 87.143,165.704 86.218 C 161.903 79.293,154.248 65.096,147.217 51.933 C 146.427 50.454,143.433 44.933,140.565 39.664 C 137.696 34.395,134.675 28.798,133.853 27.227 C 133.030 25.655,132.243 24.218,132.106 24.034 C 131.968 23.849,130.375 20.975,128.566 17.647 C 124.383 9.953,119.327 1.008,119.161 1.008 C 119.090 1.008,118.931 1.689,118.806 2.521 M162.185 10.651 C 160.806 11.389,159.921 12.102,157.135 14.724 C 155.820 15.962,154.329 17.322,153.822 17.747 L 152.900 18.518 153.005 37.242 L 153.109 55.966 156.169 61.849 C 158.788 66.884,160.637 70.272,166.900 81.513 C 169.503 86.185,172.004 90.722,172.598 91.849 C 172.963 92.542,173.379 93.109,173.522 93.109 C 173.665 93.109,173.782 85.773,173.782 76.807 L 173.782 60.504 200.168 60.504 L 226.555 60.504 226.555 77.042 C 226.555 86.849,226.678 93.450,226.857 93.261 C 227.142 92.959,233.226 82.137,236.201 76.639 C 236.951 75.252,239.268 71.017,241.350 67.227 C 246.237 58.330,246.597 57.609,247.058 55.776 C 247.331 54.689,247.412 49.134,247.335 36.759 L 247.227 19.278 246.326 17.916 C 245.390 16.504,242.330 13.654,239.319 11.391 L 237.580 10.084 200.386 10.097 C 166.896 10.110,163.093 10.165,162.185 10.651 M176.034 63.828 C 175.926 64.731,175.919 76.492,176.017 89.962 L 176.195 114.454 200.367 114.540 L 224.538 114.626 224.538 88.406 L 224.538 62.185 200.383 62.185 L 176.228 62.185 176.034 63.828 M255.649 70.673 C 254.180 73.862,252.490 77.529,251.894 78.824 C 250.812 81.174,246.945 89.702,240.921 103.025 C 236.185 113.500,236.534 111.997,236.376 122.584 L 236.239 131.722 239.884 130.597 C 241.889 129.978,244.815 129.087,246.387 128.616 C 256.374 125.625,261.731 123.930,262.066 123.654 C 262.518 123.282,263.440 119.532,264.865 112.269 C 266.728 102.776,265.430 104.140,280.563 95.781 C 287.114 92.163,288.157 91.475,287.941 90.912 C 286.639 87.519,276.330 77.024,268.739 71.364 C 265.186 68.714,259.159 64.873,258.557 64.874 C 258.426 64.875,257.118 67.484,255.649 70.673 M138.375 67.065 C 129.339 72.593,121.528 79.542,114.824 88.014 C 112.128 91.421,112.124 91.066,114.874 92.700 C 118.482 94.844,127.969 100.251,131.111 101.954 L 133.987 103.513 134.557 106.126 C 135.702 111.370,138.094 122.538,138.205 123.153 C 138.317 123.771,146.606 126.480,160.000 130.277 C 160.832 130.513,162.198 130.919,163.035 131.180 L 164.558 131.654 164.499 123.214 C 164.430 113.473,164.167 111.912,161.773 107.059 C 160.215 103.901,156.006 94.758,154.114 90.420 C 153.508 89.034,152.147 86.008,151.089 83.697 C 150.031 81.387,148.668 78.361,148.061 76.975 C 144.904 69.760,142.535 65.211,141.947 65.229 C 141.615 65.239,140.008 66.065,138.375 67.065 M397.095 92.254 C 395.818 92.894,393.076 94.595,391.003 96.036 C 384.147 100.801,373.621 108.066,361.639 116.303 C 358.277 118.613,353.888 121.639,351.886 123.025 C 349.884 124.412,347.071 126.352,345.636 127.337 C 344.200 128.322,336.445 133.664,328.403 139.209 C 320.361 144.753,312.345 150.274,310.588 151.477 C 302.565 156.973,301.140 157.972,300.741 158.384 C 299.670 159.488,298.741 161.164,297.678 163.914 C 297.044 165.551,295.598 169.084,294.462 171.765 C 285.018 194.068,285.882 190.958,285.257 204.886 C 284.967 211.350,284.646 219.437,284.544 222.857 C 284.238 233.097,283.695 247.800,283.565 249.328 C 283.406 251.203,283.299 251.240,288.466 247.627 C 294.143 243.657,310.220 232.231,312.437 230.590 C 314.157 229.317,318.190 226.450,319.532 225.546 C 328.726 219.354,329.490 218.557,337.822 206.460 C 344.297 197.060,355.023 181.627,359.833 174.790 C 361.199 172.849,364.732 167.782,367.685 163.529 C 370.637 159.277,373.530 155.118,374.112 154.286 C 374.695 153.454,376.058 151.487,377.142 149.916 C 378.225 148.345,379.858 146.000,380.770 144.706 C 383.106 141.392,383.396 140.741,387.064 130.588 C 388.868 125.597,392.201 116.445,394.471 110.252 C 396.741 104.059,398.756 98.387,398.947 97.647 C 399.350 96.093,399.839 91.092,399.587 91.092 C 399.494 91.092,398.373 91.615,397.095 92.254 M0.338 92.380 C 0.344 94.330,1.850 99.384,4.899 107.676 C 6.655 112.452,8.469 117.486,8.931 118.862 C 9.393 120.237,9.910 121.699,10.080 122.110 C 10.249 122.521,11.080 124.801,11.925 127.177 C 16.985 141.405,16.582 140.695,32.439 163.361 C 33.021 164.193,34.237 165.933,35.141 167.227 C 36.046 168.521,38.798 172.454,41.257 175.966 C 49.465 187.688,64.458 209.289,67.489 213.760 C 69.978 217.432,72.393 219.822,76.321 222.504 C 79.672 224.791,86.773 229.808,93.782 234.838 C 99.349 238.834,107.801 244.848,112.689 248.293 L 116.639 251.077 116.638 249.824 C 116.636 247.947,115.711 222.140,115.110 207.227 C 114.536 192.990,114.462 192.388,112.775 188.403 C 110.810 183.760,105.534 171.083,103.979 167.267 C 100.580 158.928,100.450 158.756,94.580 154.792 C 92.939 153.684,87.513 149.971,82.521 146.542 C 77.529 143.113,71.479 138.960,69.076 137.313 C 62.265 132.646,41.774 118.505,26.130 107.676 C 23.683 105.983,19.336 102.986,16.471 101.018 C 13.605 99.049,9.975 96.533,8.403 95.426 C 3.706 92.118,0.334 90.844,0.338 92.380 M90.661 119.786 C 90.146 120.551,88.734 122.613,87.523 124.370 C 84.612 128.592,81.179 134.378,79.836 137.326 L 78.752 139.704 83.969 143.381 C 105.689 158.692,102.752 155.869,106.334 164.874 C 107.364 167.462,109.128 171.773,110.254 174.454 C 116.531 189.396,117.896 193.252,118.109 196.639 C 118.519 203.163,118.657 206.504,119.005 218.319 C 119.304 228.474,119.472 232.446,119.638 233.232 C 119.652 233.300,122.089 231.047,125.053 228.225 C 130.910 222.649,130.544 222.825,131.796 224.985 C 131.993 225.323,132.360 225.852,132.612 226.161 C 132.865 226.470,133.787 227.706,134.661 228.908 C 141.541 238.364,146.974 245.291,147.955 245.856 C 148.940 246.424,152.808 249.236,153.286 249.732 C 153.384 249.833,154.147 250.560,154.983 251.347 L 156.502 252.779 160.016 251.787 C 161.948 251.242,165.496 250.115,167.899 249.284 C 190.581 241.436,188.423 241.887,202.276 242.091 L 211.933 242.233 220.168 245.108 C 232.131 249.284,235.019 250.260,239.302 251.575 L 243.143 252.753 245.353 250.955 C 246.568 249.966,248.924 248.183,250.588 246.993 C 253.500 244.911,253.863 244.496,260.253 235.944 C 263.905 231.057,267.590 226.187,268.441 225.121 L 269.988 223.184 275.010 228.063 C 277.772 230.746,280.155 232.941,280.306 232.941 C 280.683 232.941,280.933 227.811,281.362 211.261 C 281.844 192.663,281.067 196.072,289.558 175.294 C 296.782 157.616,297.003 157.161,299.132 155.558 C 300.164 154.781,301.160 154.016,301.345 153.858 C 302.123 153.194,311.187 146.794,312.751 145.805 C 313.687 145.213,314.529 144.638,314.622 144.528 C 314.714 144.418,316.191 143.374,317.904 142.208 C 321.850 139.522,321.718 140.152,319.329 135.411 C 316.636 130.065,309.119 118.319,308.391 118.319 C 308.164 118.319,278.789 142.492,272.101 148.182 C 271.731 148.497,268.176 151.455,264.202 154.756 C 260.227 158.056,256.294 161.326,255.462 162.021 C 254.630 162.717,249.487 166.959,244.034 171.448 C 230.187 182.846,232.399 179.376,228.081 196.471 L 226.723 201.849 223.025 201.732 C 220.992 201.668,217.908 201.722,216.172 201.851 L 213.016 202.087 211.507 203.724 C 210.678 204.625,208.954 206.689,207.678 208.311 C 203.440 213.697,200.509 217.113,200.114 217.128 C 199.647 217.146,198.182 215.456,192.605 208.472 C 187.169 201.665,187.461 201.827,180.840 201.929 C 173.380 202.044,173.054 201.781,171.431 194.318 C 168.988 183.088,168.224 181.313,164.567 178.386 C 162.854 177.016,152.798 168.787,150.084 166.535 C 127.298 147.629,95.831 121.609,93.778 119.976 C 91.619 118.259,91.686 118.263,90.661 119.786 M213.038 137.294 C 215.354 139.371,216.135 141.022,216.134 143.839 C 216.133 146.901,214.181 180.553,213.993 180.741 C 213.921 180.813,208.474 180.903,201.888 180.940 L 189.915 181.008 189.764 180.000 C 189.681 179.445,189.529 177.479,189.425 175.630 C 189.322 173.782,188.866 165.656,188.412 157.573 C 187.492 141.198,187.471 141.507,189.670 138.628 C 191.636 136.052,191.250 136.126,202.185 136.219 L 211.933 136.303 213.038 137.294 M99.496 186.212 C 103.286 187.730,106.490 189.071,106.616 189.192 C 106.875 189.440,107.755 211.564,108.100 226.508 L 108.327 236.378 107.357 235.755 C 102.402 232.570,94.558 226.986,93.863 226.148 C 93.238 225.395,92.423 217.190,91.431 201.645 C 91.048 195.656,90.590 189.092,90.413 187.059 C 90.235 185.025,90.088 183.179,90.087 182.956 C 90.083 182.457,90.364 182.554,99.496 186.212 M310.096 184.286 C 309.987 185.071,309.525 191.311,309.068 198.151 C 307.804 217.079,307.101 225.271,306.681 225.950 C 306.146 226.816,292.127 236.514,292.064 236.062 C 291.957 235.308,292.136 222.358,292.281 220.336 C 292.373 219.042,292.597 213.067,292.777 207.059 C 292.958 201.050,293.203 194.515,293.322 192.536 L 293.539 188.938 295.425 188.279 C 297.083 187.701,306.593 183.971,308.403 183.190 C 309.954 182.521,310.308 182.750,310.096 184.286 M169.003 207.727 C 174.686 209.511,176.696 210.834,183.361 217.174 C 186.134 219.812,188.449 222.079,188.504 222.212 C 188.677 222.627,182.181 229.735,181.406 229.980 C 181.002 230.107,175.815 230.378,169.879 230.581 C 156.993 231.021,158.162 231.294,151.589 226.320 C 149.097 224.435,143.050 219.913,138.151 216.271 C 133.252 212.630,129.168 209.584,129.076 209.503 C 128.884 209.335,128.462 194.912,128.638 194.558 C 128.702 194.431,136.805 197.026,146.646 200.326 C 156.486 203.626,166.547 206.956,169.003 207.727 M271.595 200.924 C 271.592 209.056,271.587 209.072,268.142 211.638 C 265.594 213.536,257.083 219.945,255.126 221.439 C 254.664 221.792,251.639 224.013,248.403 226.375 L 242.521 230.668 231.261 230.457 C 216.877 230.188,218.537 230.668,214.285 225.546 C 213.594 224.714,212.934 223.958,212.817 223.866 C 212.701 223.773,212.318 223.358,211.967 222.944 L 211.329 222.190 212.975 220.759 C 213.881 219.972,216.266 217.767,218.275 215.859 C 224.672 209.783,223.583 210.283,248.517 201.975 C 260.564 197.960,270.685 194.664,271.008 194.649 C 271.549 194.624,271.596 195.135,271.595 200.924 M69.065 225.389 C 68.483 232.373,66.572 228.082,97.562 289.375 C 112.133 318.196,112.427 318.750,113.500 319.410 C 115.345 320.545,124.030 324.210,133.738 327.951 C 136.394 328.975,139.554 330.255,140.759 330.795 L 142.951 331.779 142.720 326.141 C 142.593 323.041,142.353 316.118,142.185 310.756 C 142.018 305.395,141.733 300.519,141.554 299.921 C 141.283 299.022,135.256 290.058,130.420 283.362 C 129.430 281.991,126.946 278.439,122.689 272.304 C 122.227 271.638,121.130 270.090,120.251 268.864 C 118.053 265.796,117.624 264.404,117.404 259.612 C 117.232 255.880,117.155 255.499,116.507 255.200 C 116.117 255.020,114.437 253.899,112.773 252.709 C 111.109 251.520,107.101 248.676,103.866 246.390 C 100.630 244.104,95.412 240.408,92.269 238.178 C 86.279 233.927,85.254 233.211,75.957 226.789 C 68.656 221.745,69.357 221.888,69.065 225.389 M326.217 225.525 C 319.411 230.206,315.450 232.944,312.481 235.020 C 310.978 236.071,309.067 237.405,308.235 237.983 C 307.403 238.562,304.908 240.322,302.689 241.895 C 300.471 243.469,298.277 245.023,297.815 245.350 C 288.421 251.996,285.004 254.435,284.218 255.053 C 283.346 255.739,283.240 256.066,282.967 258.910 C 282.253 266.350,284.316 262.755,264.706 290.726 C 257.804 300.570,258.505 298.092,257.993 314.454 C 257.900 317.412,257.727 322.441,257.609 325.630 C 257.490 328.819,257.476 331.429,257.577 331.429 C 258.105 331.429,279.644 322.723,284.740 320.449 L 287.630 319.160 300.032 294.622 C 325.689 243.855,331.117 232.852,331.320 231.203 C 331.542 229.392,331.136 222.521,330.807 222.521 C 330.685 222.521,328.620 223.873,326.217 225.525 M125.680 230.509 C 119.263 236.993,119.964 234.625,120.197 249.038 C 120.398 261.477,120.695 264.570,121.813 265.868 C 122.271 266.400,122.952 267.396,133.889 283.529 C 137.399 288.706,140.700 293.491,141.225 294.163 L 142.181 295.386 145.374 293.827 L 148.567 292.269 148.547 288.571 C 148.536 286.538,148.411 277.194,148.268 267.806 L 148.009 250.739 146.021 247.809 C 144.928 246.198,143.917 244.727,143.773 244.541 C 143.630 244.354,142.565 242.916,141.407 241.345 C 137.950 236.657,130.069 226.218,129.989 226.223 C 129.949 226.226,128.010 228.155,125.680 230.509 M268.688 228.319 C 267.960 229.290,265.241 232.882,262.648 236.303 C 260.054 239.723,256.679 244.306,255.147 246.488 L 252.363 250.455 252.081 258.253 C 251.925 262.541,251.791 271.889,251.781 279.025 L 251.765 291.999 255.012 293.579 C 256.798 294.449,258.348 295.021,258.457 294.852 C 258.852 294.237,265.341 284.749,268.957 279.496 C 280.978 262.035,279.690 265.517,280.025 249.580 C 280.339 234.596,280.946 236.803,274.872 230.840 C 269.795 225.856,270.363 226.087,268.688 228.319 M185.882 244.904 C 181.192 246.331,160.470 253.028,159.412 253.459 L 158.655 253.767 158.655 276.389 L 158.655 299.011 163.106 302.699 C 165.553 304.727,170.472 308.845,174.037 311.849 C 177.602 314.853,180.637 317.311,180.782 317.311 C 180.927 317.311,181.516 316.139,182.090 314.706 C 182.664 313.273,185.005 307.487,187.293 301.849 L 191.452 291.597 199.679 291.527 C 204.203 291.488,208.078 291.564,208.288 291.695 C 209.027 292.154,211.743 298.080,214.947 306.227 C 216.727 310.752,218.441 315.096,218.755 315.881 C 219.428 317.559,219.667 317.613,221.009 316.385 C 221.564 315.877,223.303 314.398,224.874 313.097 C 228.766 309.874,237.402 302.734,239.664 300.868 C 240.681 300.029,241.624 299.188,241.760 298.999 C 241.895 298.810,242.009 288.574,242.012 276.251 L 242.017 253.847 230.840 250.132 C 224.693 248.089,217.648 245.806,215.185 245.058 L 210.706 243.697 200.227 243.713 L 189.748 243.728 185.882 244.904 M99.142 250.868 C 99.799 251.299,101.697 252.459,103.361 253.445 C 106.495 255.301,110.562 258.149,111.232 258.957 C 111.443 259.212,111.761 261.070,111.938 263.087 C 112.316 267.392,112.486 267.968,115.590 275.448 C 116.891 278.583,117.906 281.197,117.846 281.258 C 117.676 281.427,111.914 276.694,108.407 273.503 C 108.035 273.165,105.956 271.360,103.787 269.491 C 98.981 265.352,99.341 266.423,97.682 251.345 C 97.519 249.862,97.579 249.843,99.142 250.868 M302.374 252.689 C 301.453 263.311,300.965 265.294,298.748 267.422 C 294.561 271.440,282.716 281.484,282.463 281.231 C 282.294 281.062,283.628 277.548,284.973 274.622 C 286.981 270.250,288.045 266.650,288.383 263.081 C 288.563 261.182,288.815 259.355,288.942 259.022 C 289.172 258.424,295.826 253.895,299.580 251.781 C 300.643 251.182,301.597 250.555,301.700 250.388 C 302.321 249.384,302.583 250.279,302.374 252.689 M151.607 271.355 C 151.595 294.120,151.830 292.426,148.290 295.250 C 144.650 298.155,144.874 297.377,144.874 307.097 L 144.874 315.557 155.378 325.239 C 161.155 330.565,166.714 335.697,167.731 336.645 C 168.748 337.593,170.563 339.283,171.765 340.402 C 178.863 347.008,186.038 353.256,186.266 353.029 C 186.411 352.884,186.573 347.473,186.626 341.004 L 186.723 329.244 189.292 324.202 C 190.706 321.429,192.411 318.176,193.083 316.975 C 193.754 315.773,194.816 313.798,195.443 312.586 C 197.092 309.394,197.952 309.001,202.347 309.434 C 204.539 309.650,204.680 309.716,205.080 310.713 C 205.311 311.292,206.471 313.807,207.656 316.303 C 211.245 323.860,212.003 325.461,212.988 327.563 L 213.933 329.580 214.109 341.507 L 214.286 353.434 217.477 350.583 C 221.800 346.721,235.909 333.840,240.672 329.408 C 242.798 327.430,247.147 323.498,250.336 320.669 L 256.134 315.527 256.137 309.108 C 256.138 305.578,256.232 301.705,256.346 300.502 L 256.552 298.315 253.402 296.060 C 251.670 294.820,249.950 293.566,249.580 293.275 C 248.924 292.757,248.903 292.240,248.739 272.171 L 248.571 251.597 246.471 254.399 C 245.315 255.940,244.361 257.453,244.351 257.760 C 244.340 258.068,244.344 267.481,244.360 278.679 L 244.388 299.039 241.640 301.359 C 240.128 302.634,238.725 303.837,238.521 304.031 C 238.318 304.224,234.757 307.254,230.608 310.763 C 226.459 314.272,221.965 318.088,220.622 319.244 C 219.279 320.399,218.059 321.345,217.911 321.345 C 217.584 321.345,218.357 323.142,210.480 304.065 C 209.800 302.419,208.563 299.469,207.731 297.511 L 206.218 293.950 200.336 293.857 C 197.101 293.806,194.299 293.881,194.109 294.025 C 193.551 294.447,190.147 301.959,188.126 307.227 C 184.787 315.932,182.543 321.345,182.274 321.345 C 182.069 321.345,179.923 319.576,174.120 314.625 C 169.314 310.525,169.156 310.389,164.706 306.513 C 163.134 305.144,160.527 302.915,158.912 301.559 L 155.975 299.095 155.979 278.247 L 155.983 257.399 155.142 256.010 C 154.680 255.247,153.697 253.941,152.959 253.109 L 151.617 251.597 151.607 271.355 M268.252 303.530 C 267.961 307.878,267.355 309.457,264.298 313.833 L 262.689 316.134 262.421 313.277 C 262.273 311.706,262.227 308.326,262.319 305.768 L 262.487 301.115 263.903 299.213 C 264.682 298.167,265.938 296.630,266.693 295.798 L 268.067 294.286 268.289 296.975 C 268.411 298.454,268.394 301.404,268.252 303.530 M131.070 296.723 C 133.911 300.550,133.905 300.526,133.994 308.145 C 134.086 315.931,133.980 316.221,132.341 312.679 C 130.257 308.177,130.105 307.612,129.760 303.084 C 129.044 293.696,128.996 293.929,131.070 296.723 M197.781 313.866 C 189.245 330.415,189.935 327.687,189.924 344.928 C 189.915 360.219,189.988 360.935,192.215 367.395 C 192.948 369.521,194.031 372.664,194.622 374.379 L 195.697 377.498 200.285 377.404 L 204.874 377.311 206.972 371.261 C 210.690 360.536,210.525 361.772,210.552 344.370 L 210.575 329.244 209.356 326.387 C 208.686 324.815,206.988 321.151,205.582 318.244 C 204.176 315.337,203.025 312.823,203.025 312.656 C 203.025 312.304,201.397 311.933,199.851 311.933 C 198.884 311.933,198.679 312.124,197.781 313.866 " stroke="none" fill="#000000" fill-rule="evenodd"></path></g></svg>